<svg xmlns="http://www.w3.org/2000/svg" width="56.973" height="56.975" viewBox="0 0 56.973 56.975"><defs><style>.a{fill:#fff;}.b{fill:#7beaf3;}.c{fill:#052942;}</style></defs><g transform="translate(0.721 0.721)"><circle class="a" cx="27.766" cy="27.766" r="27.766"/></g><g transform="translate(25.688 8.048)"><circle class="b" cx="5.221" cy="5.221" r="5.221"/></g><g transform="translate(12.748 20.178)"><path class="b" d="M335.435,843.566a2.7,2.7,0,0,0-3.353-1.827l-1.485.438a47.229,47.229,0,0,1-26.713,0l-1.485-.438a2.7,2.7,0,1,0-1.527,5.18l1.485.438a51.4,51.4,0,0,0,7.241,1.564,2.231,2.231,0,0,1,1.94,2.2l-.19,4.275a53.172,53.172,0,0,1-1.625,10.913l-1.385,5.381a2.7,2.7,0,0,0,5.232,1.345l2.765-13.6a.936.936,0,0,1,1.812,0l2.767,13.6a2.694,2.694,0,0,0,2.613,2.029,2.73,2.73,0,0,0,.674-.086,2.7,2.7,0,0,0,1.942-3.287l-1.383-5.381a53.311,53.311,0,0,1-1.627-10.913l-.19-4.275a2.231,2.231,0,0,1,1.94-2.2,51.424,51.424,0,0,0,7.243-1.564l1.485-.438A2.7,2.7,0,0,0,335.435,843.566Z" transform="translate(-298.933 -841.629)"/></g><g transform="translate(0 0)"><path class="c" d="M320.785,888.1a28.487,28.487,0,1,1,28.486-28.488A28.519,28.519,0,0,1,320.785,888.1Zm0-55.534a27.047,27.047,0,1,0,27.046,27.046A27.078,27.078,0,0,0,320.785,832.567Z" transform="translate(-292.298 -831.126)"/><g transform="translate(22.544 4.905)"><path class="c" d="M309.974,845.562a5.941,5.941,0,1,1,5.942-5.943A5.949,5.949,0,0,1,309.974,845.562Zm0-10.442a4.5,4.5,0,1,0,4.5,4.5A4.5,4.5,0,0,0,309.974,835.12Z" transform="translate(-304.032 -833.679)"/></g><g transform="translate(9.604 17.035)"><path class="c" d="M310.049,874.872a3.477,3.477,0,0,1-.863-.109,3.427,3.427,0,0,1-2.461-4.167l1.383-5.382a52.4,52.4,0,0,0,1.606-10.763l.188-4.277a1.5,1.5,0,0,0-1.324-1.456,52.259,52.259,0,0,1-7.343-1.585l-1.485-.44a3.42,3.42,0,0,1-2.313-4.244,3.43,3.43,0,0,1,4.248-2.319l1.487.442a46.421,46.421,0,0,0,26.3,0l1.487-.44a3.422,3.422,0,0,1,3.971,4.918,3.389,3.389,0,0,1-2.038,1.643l-1.483.44a52.108,52.108,0,0,1-7.345,1.585,1.51,1.51,0,0,0-1.322,1.489l.19,4.244a52.571,52.571,0,0,0,1.6,10.763l1.383,5.382a3.421,3.421,0,0,1-2.459,4.167A3.461,3.461,0,0,1,319.3,872.3l-2.772-13.635a.208.208,0,0,0-.409.036l-2.759,13.564a3.413,3.413,0,0,1-3.308,2.607Zm-9.328-33.439a1.981,1.981,0,0,0-.563,3.881l1.487.438a50.885,50.885,0,0,0,7.139,1.541,2.939,2.939,0,0,1,2.559,2.915l-.188,4.307a54.091,54.091,0,0,1-1.65,11.061l-1.383,5.379a1.986,1.986,0,0,0,.211,1.5,1.978,1.978,0,0,0,3.622-.515l2.759-13.566a1.655,1.655,0,0,1,3.214-.035l2.774,13.635a1.981,1.981,0,0,0,3.827-1.022l-1.385-5.379a54.26,54.26,0,0,1-1.648-11.061l-.19-4.277a2.948,2.948,0,0,1,2.557-2.945A50.854,50.854,0,0,0,331,845.751l1.485-.438a1.98,1.98,0,0,0,1.341-2.459v0a1.988,1.988,0,0,0-2.461-1.337l-1.483.438a47.869,47.869,0,0,1-27.122,0l-1.485-.44A1.985,1.985,0,0,0,300.721,841.432Z" transform="translate(-297.297 -839.993)"/></g></g></svg>