<svg xmlns="http://www.w3.org/2000/svg" width="62.367" height="51.254" viewBox="0 0 62.367 51.254"><defs><style>.a{fill:#fff;}.b{fill:#7beaf3;}.c{fill:#052942;}</style></defs><g transform="translate(0.733 0.734)"><rect class="a" width="53.003" height="49.786"/></g><g transform="translate(37.515 26.311)"><rect class="a" width="21.886" height="15.872"/></g><g transform="translate(40.481 29.277)"><rect class="b" width="21.886" height="15.872" rx="0.135"/></g><path class="c" d="M916.613,807.8h-53a.734.734,0,0,1-.733-.733V757.284a.734.734,0,0,1,.733-.733h53a.734.734,0,0,1,.733.733v12.5a.733.733,0,1,1-1.467,0V758.017H864.344v48.32H915.88v-3.254a.733.733,0,1,1,1.467,0v3.988A.733.733,0,0,1,916.613,807.8Z" transform="translate(-862.877 -756.55)"/><g transform="translate(0 8.306)"><path class="c" d="M916.613,762.264h-53a.733.733,0,0,1,0-1.467h53a.733.733,0,0,1,0,1.467Z" transform="translate(-862.877 -760.797)"/></g><g transform="translate(46.623 4.086)"><path class="c" d="M889.492,760.106h-2.044a.733.733,0,1,1,0-1.467h2.044a.733.733,0,1,1,0,1.467Z" transform="translate(-886.715 -758.639)"/></g><g transform="translate(33.27 4.086)"><path class="c" d="M882.663,760.106h-2.042a.733.733,0,0,1,0-1.467h2.042a.733.733,0,0,1,0,1.467Z" transform="translate(-879.888 -758.639)"/></g><g transform="translate(39.948 4.086)"><path class="c" d="M886.077,760.106h-2.042a.733.733,0,0,1,0-1.467h2.042a.733.733,0,0,1,0,1.467Z" transform="translate(-883.302 -758.639)"/></g><g transform="translate(7.659 16.558)"><path class="c" d="M893.224,766.483h-25.7a.733.733,0,0,1,0-1.467h25.7a.733.733,0,1,1,0,1.467Z" transform="translate(-866.793 -765.016)"/></g><g transform="translate(7.659 22.408)"><path class="c" d="M873.861,769.474h-6.335a.733.733,0,0,1,0-1.467h6.335a.733.733,0,0,1,0,1.467Z" transform="translate(-866.793 -768.007)"/></g><g transform="translate(18.909 22.408)"><path class="c" d="M883.415,769.474H873.278a.733.733,0,0,1,0-1.467h10.137a.733.733,0,1,1,0,1.467Z" transform="translate(-872.545 -768.007)"/></g><g transform="translate(7.659 28.258)"><path class="c" d="M880.423,772.465h-12.9a.733.733,0,0,1,0-1.467h12.9a.733.733,0,0,1,0,1.467Z" transform="translate(-866.793 -770.998)"/></g><g transform="translate(7.659 34.109)"><path class="c" d="M888.914,775.457H867.526a.733.733,0,0,1,0-1.467h21.387a.733.733,0,0,1,0,1.467Z" transform="translate(-866.793 -773.99)"/></g><g transform="translate(7.659 39.959)"><path class="c" d="M877.147,778.448h-9.621a.733.733,0,0,1,0-1.467h9.621a.733.733,0,0,1,0,1.467Z" transform="translate(-866.793 -776.981)"/></g><g transform="translate(25.559 28.258)"><path class="c" d="M880.166,772.465h-3.487a.733.733,0,1,1,0-1.467h3.487a.733.733,0,0,1,0,1.467Z" transform="translate(-875.945 -770.998)"/></g><g transform="translate(36.781 16.263)"><g transform="translate(0 9.316)"><path class="c" d="M904.3,786.908H882.417a.734.734,0,0,1-.733-.733V770.362a.734.734,0,0,1,.733-.733H904.3a.734.734,0,0,1,.733.733v15.813A.734.734,0,0,1,904.3,786.908Zm-21.152-1.467h20.419V771.1H883.15Z" transform="translate(-881.683 -769.628)"/></g><g transform="translate(4.661)"><path class="c" d="M897.366,775.648a.734.734,0,0,1-.733-.733v-3.032a5.55,5.55,0,1,0-11.1,0v3.032a.733.733,0,0,1-1.467,0v-3.032a7.017,7.017,0,1,1,14.033,0v3.032A.734.734,0,0,1,897.366,775.648Z" transform="translate(-884.066 -764.865)"/></g><g transform="translate(8.915 13.765)"><path class="c" d="M889,777.426a2.762,2.762,0,1,1,2.76-2.762A2.765,2.765,0,0,1,889,777.426Zm0-4.056a1.295,1.295,0,1,0,1.293,1.295A1.3,1.3,0,0,0,889,773.37Z" transform="translate(-886.241 -771.903)"/></g><g transform="translate(10.945 17.821)"><path class="c" d="M888.013,778.642a.734.734,0,0,1-.733-.733v-3.2a.733.733,0,1,1,1.467,0v3.2A.734.734,0,0,1,888.013,778.642Z" transform="translate(-887.279 -773.977)"/></g></g></svg>