<svg xmlns="http://www.w3.org/2000/svg" width="44.711" height="42.819" viewBox="0 0 44.711 42.819"><defs><style>.a{fill:#fff;}.b{fill:#7beaf3;}.c{fill:#052942;}</style></defs><g transform="translate(0)"><g transform="translate(0.568 24.63)"><path class="a" d="M3476.939-40.4v15.923a28.121,28.121,0,0,0,4.588,0c1.066-.242,2.065-.715,2.065-1.681A3.082,3.082,0,0,1,3486-29.108c1.528-.424,3.636-1.684,9.78-.379s8.329,1.3,11.235-.173,12.895-7.978,12.895-7.978a1.638,1.638,0,0,0,.6-2.06c-.6-1.278-1.839-1.475-3.1-.988s-8.3,2.946-8.3,2.946a2.085,2.085,0,0,0-.614-1.451c-.669-.721-2.055-.574-3.193-.574a17.382,17.382,0,0,1-5.685-.365c-2.169-.68-4.355-2.037-6.541-1.963s-2.905-.22-5.485,1.321-3.573,2-4,1.5.5-1.127,0-1.127Z" transform="translate(-3476.939 42.095)"/></g><g transform="translate(18.516 0.567)"><path class="a" d="M3510.326-45.642v-3.139a.132.132,0,0,0-.133-.132h-1.979a.127.127,0,0,1-.125-.1,8.665,8.665,0,0,0-1.224-2.957.124.124,0,0,1,.017-.159l1.4-1.4a.134.134,0,0,0,0-.188l-2.22-2.219a.131.131,0,0,0-.186,0l-1.4,1.4a.127.127,0,0,1-.159.017,8.693,8.693,0,0,0-2.957-1.225.127.127,0,0,1-.1-.124v-1.978a.133.133,0,0,0-.132-.133h-3.138a.133.133,0,0,0-.132.133v1.978a.125.125,0,0,1-.1.124,8.687,8.687,0,0,0-2.958,1.225.125.125,0,0,1-.158-.017l-1.4-1.4a.134.134,0,0,0-.188,0l-2.219,2.219a.134.134,0,0,0,0,.188l1.4,1.4a.126.126,0,0,1,.017.159,8.7,8.7,0,0,0-1.226,2.957.126.126,0,0,1-.124.1h-1.978a.132.132,0,0,0-.133.132v3.139a.132.132,0,0,0,.133.133h1.978a.126.126,0,0,1,.124.1,8.716,8.716,0,0,0,1.226,2.957.126.126,0,0,1-.017.159l-1.4,1.4a.133.133,0,0,0,0,.186l2.219,2.219a.134.134,0,0,0,.188,0l1.472-1.472a8.8,8.8,0,0,0,1.224.685,8.722,8.722,0,0,0,1.818.6.127.127,0,0,1,.1.126v1.978a.132.132,0,0,0,.132.132h3.138a.132.132,0,0,0,.132-.132v-1.98a.128.128,0,0,1,.1-.124,8.66,8.66,0,0,0,2.957-1.224.125.125,0,0,1,.159.017l1.4,1.4a.131.131,0,0,0,.186,0l2.22-2.219a.132.132,0,0,0,0-.186l-1.4-1.4a.124.124,0,0,1-.017-.159,8.677,8.677,0,0,0,1.224-2.957.127.127,0,0,1,.125-.1h1.979A.132.132,0,0,0,3510.326-45.642Zm-10,1.441a3.11,3.11,0,0,1-3.78-3.779,3.082,3.082,0,0,1,2.236-2.239,3.111,3.111,0,0,1,3.781,3.781A3.082,3.082,0,0,1,3500.328-44.2Z" transform="translate(-3488.787 57.981)"/></g><g transform="translate(20.359 2.41)"><path class="b" d="M3511.542-44.426v-3.139a.132.132,0,0,0-.132-.132h-1.979a.128.128,0,0,1-.125-.1,8.654,8.654,0,0,0-1.224-2.957.124.124,0,0,1,.017-.159l1.4-1.4a.131.131,0,0,0,0-.186l-2.219-2.219a.13.13,0,0,0-.187,0l-1.4,1.4a.124.124,0,0,1-.159.017,8.657,8.657,0,0,0-2.957-1.224.127.127,0,0,1-.1-.124v-1.98a.132.132,0,0,0-.134-.132H3499.2a.132.132,0,0,0-.134.132v1.98a.127.127,0,0,1-.1.124,8.643,8.643,0,0,0-2.957,1.224.124.124,0,0,1-.159-.017l-1.4-1.4a.129.129,0,0,0-.186,0l-2.221,2.219a.132.132,0,0,0,0,.186l1.4,1.4a.127.127,0,0,1,.017.159,8.686,8.686,0,0,0-1.226,2.957.127.127,0,0,1-.124.1h-1.978a.132.132,0,0,0-.132.132v3.139a.132.132,0,0,0,.132.133h1.978a.127.127,0,0,1,.124.1,8.686,8.686,0,0,0,1.226,2.957.127.127,0,0,1-.017.159l-1.4,1.4a.132.132,0,0,0,0,.186l2.221,2.219a.129.129,0,0,0,.186,0l1.472-1.472a8.56,8.56,0,0,0,1.226.685,8.677,8.677,0,0,0,1.816.6.129.129,0,0,1,.1.126v1.978a.132.132,0,0,0,.134.132h3.137a.132.132,0,0,0,.134-.132v-1.98a.127.127,0,0,1,.1-.124,8.657,8.657,0,0,0,2.957-1.224.124.124,0,0,1,.159.017l1.4,1.4a.13.13,0,0,0,.187,0l2.219-2.219a.131.131,0,0,0,0-.186l-1.4-1.4a.124.124,0,0,1-.017-.159,8.654,8.654,0,0,0,1.224-2.957.128.128,0,0,1,.125-.1h1.979A.132.132,0,0,0,3511.542-44.426Zm-10,1.441a3.11,3.11,0,0,1-3.78-3.779A3.079,3.079,0,0,1,3500-49a3.108,3.108,0,0,1,3.781,3.779A3.079,3.079,0,0,1,3501.544-42.986Z" transform="translate(-3490.004 56.764)"/></g><g transform="translate(17.948)"><path class="c" d="M3501.452-35.681h-3.405a.568.568,0,0,1-.568-.568v-1.76a9.188,9.188,0,0,1-2.5-1.033l-1.245,1.244a.567.567,0,0,1-.8,0l-2.405-2.407a.561.561,0,0,1-.167-.4.558.558,0,0,1,.168-.4l1.243-1.244a9.218,9.218,0,0,1-1.033-2.5h-1.761a.568.568,0,0,1-.568-.568v-3.4a.568.568,0,0,1,.568-.568h1.761a9.189,9.189,0,0,1,1.033-2.5l-1.245-1.245a.561.561,0,0,1-.167-.4.556.556,0,0,1,.168-.4l2.405-2.407a.568.568,0,0,1,.8,0l1.245,1.245a9.188,9.188,0,0,1,2.5-1.033v-1.76a.567.567,0,0,1,.568-.568h3.405a.567.567,0,0,1,.569.568v1.759a9.22,9.22,0,0,1,2.5,1.035l1.242-1.245a.588.588,0,0,1,.8,0l2.406,2.407a.565.565,0,0,1,0,.8l-1.243,1.245a9.241,9.241,0,0,1,1.033,2.5h1.76a.568.568,0,0,1,.568.568v3.4a.568.568,0,0,1-.568.568h-1.76a9.221,9.221,0,0,1-1.033,2.5l1.243,1.245a.569.569,0,0,1,0,.8l-2.405,2.407a.569.569,0,0,1-.4.167h0a.567.567,0,0,1-.4-.167l-1.242-1.244a9.184,9.184,0,0,1-2.5,1.033v1.76A.568.568,0,0,1,3501.452-35.681Zm-2.837-1.136h2.269v-1.647a.568.568,0,0,1,.458-.557,8.073,8.073,0,0,0,2.938-1.216.568.568,0,0,1,.718.07L3506.162-39l1.6-1.6L3506.6-41.77a.569.569,0,0,1-.069-.718,8.09,8.09,0,0,0,1.216-2.939.569.569,0,0,1,.558-.459h1.646v-2.266h-1.646a.569.569,0,0,1-.558-.457,8.047,8.047,0,0,0-1.216-2.939.569.569,0,0,1,.069-.718l1.163-1.165-1.6-1.6L3505-53.87a.567.567,0,0,1-.718.071,8.1,8.1,0,0,0-2.94-1.218.567.567,0,0,1-.456-.557v-1.645h-2.269v1.645a.568.568,0,0,1-.456.557,8.072,8.072,0,0,0-2.938,1.218.567.567,0,0,1-.717-.071l-1.166-1.163-1.6,1.6,1.166,1.165a.568.568,0,0,1,.07.718,8.049,8.049,0,0,0-1.216,2.939.569.569,0,0,1-.557.457h-1.648v2.266h1.648a.569.569,0,0,1,.557.459,8.081,8.081,0,0,0,1.216,2.939.566.566,0,0,1-.071.718l-1.165,1.163,1.6,1.6,1.166-1.165a.567.567,0,0,1,.717-.07,8.07,8.07,0,0,0,2.938,1.216.569.569,0,0,1,.456.557Zm1.135-6.532a3.674,3.674,0,0,1-3.669-3.67,3.673,3.673,0,0,1,3.669-3.669,3.673,3.673,0,0,1,3.67,3.669A3.674,3.674,0,0,1,3499.75-43.349Zm0-6.2a2.535,2.535,0,0,0-2.533,2.533,2.536,2.536,0,0,0,2.533,2.534,2.536,2.536,0,0,0,2.534-2.534A2.536,2.536,0,0,0,3499.75-49.551Z" transform="translate(-3488.412 58.355)"/></g><g transform="translate(0 24.065)"><g transform="translate(0 1.695)"><path class="c" d="M3481-24.29h-3.864a.568.568,0,0,1-.568-.568V-40.781a.565.565,0,0,1,.165-.4.563.563,0,0,1,.4-.167h6.651a.569.569,0,0,1,.568.568v13.275A3.293,3.293,0,0,1,3481-24.29Zm-3.3-1.136h3.3a2.157,2.157,0,0,0,2.221-2.08l0-12.707H3477.7Z" transform="translate(-3476.564 41.349)"/><g transform="translate(3.144 12.056)"><path class="c" d="M3479.207-31.477a.568.568,0,0,1-.568-.568v-.777a.568.568,0,0,1,.568-.568.568.568,0,0,1,.568.568v.777A.568.568,0,0,1,3479.207-31.477Z" transform="translate(-3478.639 33.39)"/></g></g><g transform="translate(6.653)"><path class="c" d="M3505.015-34.952h-7.852a.568.568,0,0,1-.568-.568.568.568,0,0,1,.568-.568h7.852a1.46,1.46,0,0,0,1.458-1.459A1.459,1.459,0,0,0,3505.015-39h-4.194a15.488,15.488,0,0,1-6.147-1.272,12.3,12.3,0,0,0-4.782-1.056,8.672,8.672,0,0,0-4.971,1.806,6.354,6.354,0,0,1-3.4,1.384.569.569,0,0,1-.568-.568.569.569,0,0,1,.568-.568,5.493,5.493,0,0,0,2.779-1.2,9.739,9.739,0,0,1,5.589-1.989,13.419,13.419,0,0,1,5.184,1.128,14.508,14.508,0,0,0,5.745,1.2h4.194a2.6,2.6,0,0,1,2.595,2.593A2.6,2.6,0,0,1,3505.015-34.952Z" transform="translate(-3480.955 42.468)"/></g><g transform="translate(6.653 1.101)"><path class="c" d="M3481.524-26.736a.561.561,0,0,1-.37-.138.569.569,0,0,1-.061-.8c4.03-4.684,9.672-3.31,14.652-2.095l.806.2c4.2,1.009,6.7.058,8.577-1.009,1.639-.929,9.013-5.538,12.106-7.477a1.356,1.356,0,0,0,.61-.859,1.391,1.391,0,0,0-.186-1.05,1.384,1.384,0,0,0-1.657-.542l-8.754,3.381a.567.567,0,0,1-.735-.324.568.568,0,0,1,.326-.735l8.752-3.381a2.512,2.512,0,0,1,3.022.988,2.493,2.493,0,0,1,.341,1.912,2.489,2.489,0,0,1-1.114,1.574c-3.1,1.942-10.491,6.562-12.152,7.5-2.07,1.177-4.809,2.228-9.4,1.125l-.809-.2c-4.889-1.192-9.946-2.425-13.522,1.733A.564.564,0,0,1,3481.524-26.736Z" transform="translate(-3480.956 41.741)"/></g></g><g transform="translate(9.473 3.426)"><g transform="translate(0 7.321)"><path class="c" d="M3483.384-50.109a.569.569,0,0,1-.567-.567.566.566,0,0,1,.565-.57l3.177-.014a.584.584,0,0,1,.571.565.569.569,0,0,1-.565.571l-3.177.014Z" transform="translate(-3482.817 51.26)"/></g><g transform="translate(3.064 12.394)"><path class="c" d="M3485.409-44.522a.559.559,0,0,1-.4-.165.569.569,0,0,1,0-.8l2.234-2.252a.566.566,0,0,1,.8,0,.566.566,0,0,1,0,.8l-2.235,2.252A.562.562,0,0,1,3485.409-44.522Z" transform="translate(-3484.841 47.911)"/></g><g transform="translate(3.004)"><path class="c" d="M3487.521-52.823a.56.56,0,0,1-.4-.165l-2.152-2.134a.569.569,0,0,1,0-.8.566.566,0,0,1,.8,0l2.152,2.134a.565.565,0,0,1,0,.8A.566.566,0,0,1,3487.521-52.823Z" transform="translate(-3484.8 56.093)"/></g></g></g></svg>