<svg xmlns="http://www.w3.org/2000/svg" width="46.42" height="36.011" viewBox="0 0 46.42 36.011"><defs><style>.a{fill:#fff;}.b{fill:#7beaf3;}.c{fill:#052942;}</style></defs><g transform="translate(14.578 0.568)"><path class="a" d="M3380.229-20.4c0-9.513,5.709-10.271,5.709-21.181,0-8.475-7.766-13.48-14.181-13.48-11.556,0-13.858,7.757-13.858,12.833a11.7,11.7,0,0,1-2.809,7.278c-1.2,1.481.133,2.307,1.75,2.8,1.565.479-1.4,1.628.115,2.537.742.444-.852,2.107.806,2.442,1.471.3-1.266,3.647,3.621,3.647,2.285,0,5.246.766,5.246,3.335Z" transform="translate(-3354.628 55.058)"/></g><g transform="translate(25.52 8.304)"><ellipse class="b" cx="8.121" cy="8.122" rx="8.121" ry="8.122"/></g><g transform="translate(14.043)"><g transform="translate(8.979 5.806)"><path class="c" d="M3368.894-34.22a8.7,8.7,0,0,1-8.69-8.69,8.7,8.7,0,0,1,8.69-8.69,8.7,8.7,0,0,1,8.69,8.69A8.7,8.7,0,0,1,3368.894-34.22Zm0-16.244a7.563,7.563,0,0,0-7.554,7.554,7.562,7.562,0,0,0,7.554,7.554,7.563,7.563,0,0,0,7.554-7.554A7.564,7.564,0,0,0,3368.894-50.464Zm-1.413,10.617a.564.564,0,0,1-.4-.167l-2.162-2.16a.574.574,0,0,1,0-.8.573.573,0,0,1,.806,0l1.759,1.76,4.586-4.588a.571.571,0,0,1,.8,0,.569.569,0,0,1,0,.8l-4.99,4.99A.559.559,0,0,1,3367.481-39.847Z" transform="translate(-3360.203 51.6)"/></g><path class="c" d="M3366.819-19.422a.569.569,0,0,1-.569-.568c0-2.634-3.888-2.767-4.666-2.767a4.157,4.157,0,0,1-3.044-.886,2.771,2.771,0,0,1-.634-2.155,2.183,2.183,0,0,0-.041-.63,1.473,1.473,0,0,1-1.049-.615,1.883,1.883,0,0,1-.086-1.51,1.95,1.95,0,0,0,.074-.465,1.108,1.108,0,0,1-.635-.806,1.83,1.83,0,0,1,.544-1.415c.041-.053.091-.118.136-.18-1.45-.45-2.269-1.045-2.505-1.816a2,2,0,0,1,.518-1.875c.275-.339.512-.686.738-1.021l.224-.323c.92-1.325,1.183-3.376,1.464-5.548.148-1.166.3-2.372.57-3.567.656-2.966,3.344-9.862,14.076-9.862,7.107,0,14.717,5.645,14.717,14.048a20.834,20.834,0,0,1-3.063,11.436,17.115,17.115,0,0,0-2.632,9.307.569.569,0,0,1-.568.568.569.569,0,0,1-.569-.568,18.284,18.284,0,0,1,2.771-9.849,19.871,19.871,0,0,0,2.924-10.894c0-8.423-7.888-12.912-13.581-12.912-9.909,0-12.369,6.274-12.967,8.972-.253,1.145-.406,2.325-.553,3.467-.3,2.313-.58,4.5-1.658,6.05l-.216.315c-.245.359-.5.732-.793,1.1-.276.339-.381.618-.316.827.052.176.334.629,1.787,1.074a1.179,1.179,0,0,1,.832.692,1.416,1.416,0,0,1-.438,1.259,1.75,1.75,0,0,0-.324.515h0a.9.9,0,0,0,.17.127c.658.4.484,1.151.379,1.6-.047.206-.126.548-.065.641.018.029.1.088.309.13.984.2.97,1.168.96,1.748a1.779,1.779,0,0,0,.306,1.339,3.3,3.3,0,0,0,2.236.548c2.677,0,5.8,1.022,5.8,3.9A.568.568,0,0,1,3366.819-19.422Z" transform="translate(-3354.275 55.433)"/></g><g transform="translate(0 3.785)"><path class="c" d="M3347.34-35.846a.567.567,0,0,1-.51-.32A18.08,18.08,0,0,1,3345-44.135a18.3,18.3,0,0,1,2.092-8.5.573.573,0,0,1,.769-.239.57.57,0,0,1,.237.768,17.154,17.154,0,0,0-1.962,7.968,16.969,16.969,0,0,0,1.71,7.472.568.568,0,0,1-.262.759A.578.578,0,0,1,3347.34-35.846Z" transform="translate(-3345.004 52.934)"/></g><g transform="translate(4.107 5.615)"><path class="c" d="M3349.73-38.077a.567.567,0,0,1-.508-.312,14.024,14.024,0,0,1-1.507-6.368,14.209,14.209,0,0,1,1.663-6.668.566.566,0,0,1,.77-.233.569.569,0,0,1,.234.768,13.039,13.039,0,0,0-1.531,6.133,12.878,12.878,0,0,0,1.385,5.856.57.57,0,0,1-.251.763A.574.574,0,0,1,3349.73-38.077Z" transform="translate(-3347.715 51.726)"/></g><g transform="translate(8.604 7.541)"><path class="c" d="M3352.355-40.5a.563.563,0,0,1-.5-.3,9.672,9.672,0,0,1-1.173-4.618,9.653,9.653,0,0,1,1.251-4.756.569.569,0,0,1,.774-.214.567.567,0,0,1,.214.774,8.529,8.529,0,0,0-1.1,4.2,8.56,8.56,0,0,0,1.033,4.075.567.567,0,0,1-.226.771A.573.573,0,0,1,3352.355-40.5Z" transform="translate(-3350.684 50.455)"/></g><g transform="translate(12.798 9.339)"><path class="c" d="M3354.857-42.712a.574.574,0,0,1-.471-.25,5.454,5.454,0,0,1-.934-3.06,5.435,5.435,0,0,1,.888-2.987.566.566,0,0,1,.786-.165.569.569,0,0,1,.163.786,4.315,4.315,0,0,0-.7,2.366,4.326,4.326,0,0,0,.738,2.424.567.567,0,0,1-.151.789A.578.578,0,0,1,3354.857-42.712Z" transform="translate(-3353.453 49.268)"/></g></svg>