<svg xmlns="http://www.w3.org/2000/svg" width="62.553" height="51.245" viewBox="0 0 62.553 51.245"><defs><style>.a{fill:#fff;}.b{fill:#7beaf3;}.c{fill:#052942;}</style></defs><g transform="translate(0.735 0.734)"><rect class="a" width="52.993" height="49.777"/></g><g transform="translate(28.354 18.151)"><path class="b" d="M3705.151,316.1a17.1,17.1,0,1,0-31.066,9.842h27.934A17,17,0,0,0,3705.151,316.1Z" transform="translate(-3670.952 -298.996)"/></g><path class="c" d="M3710.18,340.959h-53a.734.734,0,0,1-.733-.733V290.447a.734.734,0,0,1,.733-.733h53a.733.733,0,0,1,.733.733v12.894a.733.733,0,1,1-1.466,0V291.181h-51.528v48.312h51.528v-3.254a.733.733,0,1,1,1.466,0v3.987A.733.733,0,0,1,3710.18,340.959Z" transform="translate(-3656.452 -289.714)"/><g transform="translate(0 8.305)"><path class="c" d="M3710.18,295.428h-53a.733.733,0,0,1,0-1.467h53a.733.733,0,0,1,0,1.467Z" transform="translate(-3656.452 -293.961)"/></g><g transform="translate(46.616 4.085)"><path class="c" d="M3683.067,293.27h-2.043a.733.733,0,1,1,0-1.467h2.043a.733.733,0,0,1,0,1.467Z" transform="translate(-3680.29 -291.803)"/></g><g transform="translate(33.267 4.085)"><path class="c" d="M3676.239,293.27H3674.2a.733.733,0,0,1,0-1.467h2.042a.733.733,0,0,1,0,1.467Z" transform="translate(-3673.464 -291.803)"/></g><g transform="translate(39.94 4.085)"><path class="c" d="M3679.654,293.27h-2.044a.733.733,0,0,1,0-1.467h2.044a.733.733,0,1,1,0,1.467Z" transform="translate(-3676.877 -291.803)"/></g><g transform="translate(25.024 14.82)"><g transform="translate(14.598 16.594)"><path class="c" d="M3679.948,312.25a3.235,3.235,0,1,1,3.234-3.234A3.238,3.238,0,0,1,3679.948,312.25Zm0-5a1.769,1.769,0,1,0,1.767,1.77A1.77,1.77,0,0,0,3679.948,307.246Z" transform="translate(-3676.714 -305.779)"/></g><path class="c" d="M3701.048,325.7h-27.934a.736.736,0,0,1-.6-.309,17.832,17.832,0,1,1,29.132,0A.731.731,0,0,1,3701.048,325.7Zm-27.548-1.467h27.161a16.215,16.215,0,0,0,2.785-9.111,16.365,16.365,0,1,0-29.946,9.111Z" transform="translate(-3669.249 -297.293)"/><g transform="translate(31.195 17.099)"><path class="c" d="M3688.937,307.5h-3a.733.733,0,0,1,0-1.467h3a.733.733,0,1,1,0,1.467Z" transform="translate(-3685.202 -306.037)"/></g><g transform="translate(0 17.099)"><path class="c" d="M3672.983,307.5h-3a.733.733,0,0,1,0-1.467h3a.733.733,0,0,1,0,1.467Z" transform="translate(-3669.249 -306.037)"/></g><g transform="translate(27.068 5.007)"><path class="c" d="M3683.824,303.443a.732.732,0,0,1-.52-1.251l2.121-2.122a.734.734,0,0,1,1.039,1.038l-2.122,2.122A.73.73,0,0,1,3683.824,303.443Z" transform="translate(-3683.091 -299.854)"/></g><g transform="translate(5.006 5.008)"><path class="c" d="M3674.667,303.442a.727.727,0,0,1-.518-.213l-2.124-2.122a.733.733,0,1,1,1.034-1.038l2.123,2.122a.732.732,0,0,1-.516,1.251Z" transform="translate(-3671.809 -299.854)"/></g><g transform="translate(18.07 8.945)"><path class="c" d="M3679.223,311.18a.764.764,0,0,1-.283-.057.732.732,0,0,1-.391-.962l3.3-7.845a.733.733,0,1,1,1.35.569l-3.3,7.845A.733.733,0,0,1,3679.223,311.18Z" transform="translate(-3678.49 -301.867)"/></g><g transform="translate(17.098)"><path class="c" d="M3678.726,301.779a.733.733,0,0,1-.733-.733v-3.019a.733.733,0,1,1,1.467,0v3.019A.734.734,0,0,1,3678.726,301.779Z" transform="translate(-3677.993 -297.293)"/></g></g><g transform="translate(7.66 16.553)"><path class="c" d="M3675.416,299.646H3661.1a.733.733,0,1,1,0-1.467h14.314a.733.733,0,0,1,0,1.467Z" transform="translate(-3660.369 -298.179)"/></g><g transform="translate(7.66 22.404)"><path class="c" d="M3669.98,302.638H3661.1a.733.733,0,1,1,0-1.467h8.877a.733.733,0,1,1,0,1.467Z" transform="translate(-3660.369 -301.171)"/></g><g transform="translate(7.66 28.252)"><path class="c" d="M3664.749,305.629H3661.1a.733.733,0,1,1,0-1.467h3.646a.733.733,0,0,1,0,1.467Z" transform="translate(-3660.369 -304.162)"/></g><g transform="translate(7.66 41.763)"><path class="c" d="M3669.707,312.538h-8.6a.733.733,0,1,1,0-1.467h8.6a.733.733,0,0,1,0,1.467Z" transform="translate(-3660.369 -311.071)"/></g></svg>