<svg xmlns="http://www.w3.org/2000/svg" width="57.271" height="57.675" viewBox="0 0 57.271 57.675"><defs><style>.a{fill:#fff;}.b{fill:#7beaf3;}.c{fill:#052942;}</style></defs><g transform="translate(28.746 1.652)"><path class="a" d="M432.492,825.628a.59.59,0,0,0-1.062,0,11.552,11.552,0,0,1-10.434,6.626c-.63,0-1.837-.294-1.837.38V841.7A16.684,16.684,0,0,0,431.975,857.9,16.683,16.683,0,0,0,444.793,841.7v-8.469c0-.492.1-.972-1.867-.972A11.552,11.552,0,0,1,432.492,825.628Z" transform="translate(-419.158 -825.295)"/></g><g transform="translate(0.719 1.84)"><rect class="a" width="40.844" height="55.335"/></g><g transform="translate(31.635 4.542)"><path class="b" d="M434,827.132a.592.592,0,0,0-1.064,0,11.55,11.55,0,0,1-10.434,6.625c-.628,0-1.837-.292-1.837.382V843.2a16.687,16.687,0,0,0,12.817,16.208A16.687,16.687,0,0,0,446.3,843.2V834.73c0-.492.1-.974-1.867-.974A11.547,11.547,0,0,1,434,827.132Z" transform="translate(-420.662 -826.799)"/></g><g transform="translate(0)"><g transform="translate(35.669 14.082)"><path class="c" d="M427.155,840.64a.718.718,0,0,1-.511-.211l-3.673-3.673a.722.722,0,1,1,1.022-1.02l3.162,3.166,6.924-6.926A.721.721,0,1,1,435.1,833l-7.433,7.433A.718.718,0,0,1,427.155,840.64Z" transform="translate(-422.761 -831.765)"/></g><g transform="translate(7.383 9.905)"><path class="c" d="M423.444,831.031H408.76a.72.72,0,1,1,0-1.441h14.684a.72.72,0,1,1,0,1.441Z" transform="translate(-408.039 -829.59)"/></g><g transform="translate(7.383 17.484)"><path class="c" d="M419.609,834.976H408.76a.72.72,0,1,1,0-1.441h10.849a.72.72,0,0,1,0,1.441Z" transform="translate(-408.039 -833.535)"/></g><g transform="translate(7.383 25.065)"><path class="c" d="M425.478,838.922H408.76a.72.72,0,1,1,0-1.441h16.719a.72.72,0,0,1,0,1.441Z" transform="translate(-408.039 -837.481)"/></g><g transform="translate(7.383 32.647)"><path class="c" d="M422.543,842.868H408.76a.72.72,0,1,1,0-1.441h13.783a.72.72,0,0,1,0,1.441Z" transform="translate(-408.039 -841.427)"/></g><g transform="translate(7.383 47.807)"><path class="c" d="M413.28,850.759H408.76a.72.72,0,1,1,0-1.441h4.521a.72.72,0,1,1,0,1.441Z" transform="translate(-408.039 -849.318)"/></g><g transform="translate(25.747 47.807)"><path class="c" d="M426.385,850.759h-8.067a.72.72,0,0,1,0-1.441h8.067a.72.72,0,0,1,0,1.441Z" transform="translate(-417.597 -849.318)"/></g><g transform="translate(0 1.342)"><path class="c" d="M445.759,881.466H404.917a.721.721,0,0,1-.72-.72V825.854a.721.721,0,0,1,.72-.72h32.867a.72.72,0,1,1,0,1.441H405.637v53.451h39.4V861.262a.72.72,0,0,1,1.441,0v19.484A.721.721,0,0,1,445.759,881.466Z" transform="translate(-404.196 -825.133)"/></g><g transform="translate(28.023)"><path class="c" d="M432.321,859.416a.741.741,0,0,1-.169-.021,17.353,17.353,0,0,1-13.37-16.907V832.86a.719.719,0,0,1,.254-.548.743.743,0,0,1,.58-.163,11.083,11.083,0,0,0,1.725.177,10.862,10.862,0,0,0,10.283-7.449.748.748,0,0,1,1.366,0,10.545,10.545,0,0,0,12.035,7.268.719.719,0,0,1,.836.711v9.631a17.351,17.351,0,0,1-13.372,16.907A.688.688,0,0,1,432.321,859.416Zm-12.1-25.724v8.8a15.916,15.916,0,0,0,12.1,15.466,15.916,15.916,0,0,0,12.1-15.466v-8.8a9.6,9.6,0,0,1-1.145.077,12.285,12.285,0,0,1-10.967-6.792,12.285,12.285,0,0,1-10.966,6.792A9.3,9.3,0,0,1,420.223,833.692Z" transform="translate(-418.782 -824.435)"/></g></g></svg>