<svg xmlns="http://www.w3.org/2000/svg" width="58.025" height="45.628" viewBox="0 0 58.025 45.628"><defs><style>.a{fill:#fff;}.b{fill:#7beaf3;}.c{fill:#052942;}</style></defs><g transform="translate(0.714 0.731)"><path class="a" d="M338.64,16.583l11.566,6.755-1.443,14.991.154,3.368,3.753,3.849,6.986,2.733,7.852.847,7.852-.847L381.92,45.8l3.907-3.618.789-4.465-1.6-13.009.058-2.521,9.834-5.716L366.929,4.94Z" transform="translate(-338.64 -4.94)"/></g><g transform="translate(1.624 32.378)"><path class="a" d="M339.338,26.264c-.135,1.886-.924,4.388,1.559,5.465,2.463,1.078,3.579-1.386,3.714-1.963s.462-4.061-.462-5.061-2.194-3.714-2.328-3.272C341.648,21.876,339.434,24.82,339.338,26.264Z" transform="translate(-339.113 -21.385)"/></g><g transform="translate(33.865 3.276)"><path class="b" d="M375.926,11.781c4.118,5.119,4.927,13.336-.192,17.455s-11.893.712-16.011-4.407-5.793-12.355-.674-16.473C364.168,4.218,371.808,6.662,375.926,11.781Z" transform="translate(-355.867 -6.262)"/></g><g transform="translate(51.056 29.617)"><path class="b" d="M368.726,22.471a2.407,2.407,0,0,1-2.117,2.521c-1.232-.019-1.828-1.328-1.809-2.559s.635-2.5,1.886-2.483A2.32,2.32,0,0,1,368.726,22.471Z" transform="translate(-364.8 -19.95)"/></g><g transform="translate(3.735 35.717)"><path class="b" d="M340.21,28.99c0-3.637,2.559-5.87,2.887-5.87.4,0,2.887,2.617,2.887,5.87a2.907,2.907,0,1,1-5.773,0Z" transform="translate(-340.21 -23.12)"/></g><path class="c" d="M367.272,33.253a.784.784,0,0,1-.346-.1L348.759,23.15a.723.723,0,0,1,.693-1.27l17.8,9.815L393.868,17.03,367.253,6.061,340.638,17.03l2.964,1.636a.723.723,0,1,1-.693,1.27l-4.272-2.348a.707.707,0,0,1-.366-.674.772.772,0,0,1,.443-.635L367,4.618a.7.7,0,0,1,.558,0L395.85,16.28a.723.723,0,0,1,.443.635.742.742,0,0,1-.366.674L367.638,33.176A.894.894,0,0,1,367.272,33.253Z" transform="translate(-338.269 -4.56)"/><g transform="translate(9.759 17.39)"><path class="c" d="M363.162,41.835c-11.123,0-19.822-4.561-19.822-10.411l1.867-16.531a.721.721,0,0,1,.808-.635.714.714,0,0,1,.635.789L344.8,31.5c0,4.773,8.429,8.872,18.4,8.872s18.378-4.1,18.378-8.968l-1.847-17.012a.716.716,0,0,1,.635-.789.683.683,0,0,1,.789.635l1.867,17.089C382.983,37.274,374.285,41.835,363.162,41.835Z" transform="translate(-343.34 -13.596)"/></g><g transform="translate(10.122 31.402)"><path class="c" d="M362.987,30.312c-9.564,0-17.724-3.56-19.418-8.448a.73.73,0,0,1,.443-.924.738.738,0,0,1,.924.443c1.463,4.272,9.237,7.486,18.051,7.486,8.852,0,16.608-3.233,18.051-7.505a.722.722,0,0,1,.924-.443.74.74,0,0,1,.462.924C380.75,26.752,372.571,30.312,362.987,30.312Z" transform="translate(-343.529 -20.878)"/></g><g transform="translate(1.118 12.428)"><path class="c" d="M342.333,42.044a3.594,3.594,0,0,1-3.483-3.868,8.873,8.873,0,0,1,1.636-5.658,4.406,4.406,0,0,0,.962-2.771c0-6.582,1.135-10.719,2.1-13.048a6.24,6.24,0,0,1,5.177-3.83l17.743-1.847a.716.716,0,1,1,.154,1.424l-17.743,1.847a4.826,4.826,0,0,0-3.984,2.944c-.9,2.194-1.982,6.139-1.982,12.49a4.189,4.189,0,0,1-.019.5.328.328,0,0,1,.019.135,3.731,3.731,0,0,0,1.039,2.386,7.458,7.458,0,0,1,1.79,5.273,4.105,4.105,0,0,1-1.039,2.944A3.146,3.146,0,0,1,342.333,42.044Zm-.231-9.372-.4.635a7.369,7.369,0,0,0-1.4,4.85,2.144,2.144,0,0,0,2.04,2.425c.9,0,1.963-.674,1.963-2.54a6.071,6.071,0,0,0-1.5-4.407A9.527,9.527,0,0,1,342.1,32.672Z" transform="translate(-338.85 -11.018)"/></g></svg>