<svg xmlns="http://www.w3.org/2000/svg" width="53.757" height="58.875" viewBox="0 0 53.757 58.875"><defs><style>.a{fill:#fff;}.b{fill:#7beaf3;}.c{fill:#052942;}</style></defs><g transform="translate(0.721 31.429)"><path class="a" d="M145.507,850.381l-9.532,17.693,11.413-1.261,5.167,10.293,8.8-16.427Z" transform="translate(-135.975 -850.381)"/></g><g transform="translate(27.682 31.609)"><path class="a" d="M165.859,850.474l9.5,17.512-11.413-1.261-5.167,10.293-8.774-16.247Z" transform="translate(-150.008 -850.474)"/></g><g transform="translate(5.185 0.722)"><path class="a" d="M161.862,835h0a3.347,3.347,0,0,1,4.778,1.015h0a3.343,3.343,0,0,0,3.5,1.556h0a3.35,3.35,0,0,1,3.952,2.872h0a3.344,3.344,0,0,0,2.559,2.844h0a3.348,3.348,0,0,1,2.444,4.231h0a3.346,3.346,0,0,0,1.182,3.639h0a3.35,3.35,0,0,1,.511,4.859h0a3.346,3.346,0,0,0-.4,3.8h0a3.349,3.349,0,0,1-1.51,4.646h0a3.35,3.35,0,0,0-1.914,3.314h0a3.349,3.349,0,0,1-3.268,3.631h0a3.344,3.344,0,0,0-3.1,2.248h0a3.35,3.35,0,0,1-4.463,1.989h0a3.341,3.341,0,0,0-3.743.8h0a3.35,3.35,0,0,1-4.886,0h0a3.342,3.342,0,0,0-3.743-.8h0a3.348,3.348,0,0,1-4.463-1.989h0a3.344,3.344,0,0,0-3.1-2.248h0a3.349,3.349,0,0,1-3.268-3.631h0a3.35,3.35,0,0,0-1.914-3.314h0a3.347,3.347,0,0,1-1.51-4.646h0a3.346,3.346,0,0,0-.4-3.8h0a3.348,3.348,0,0,1,.511-4.859h0a3.346,3.346,0,0,0,1.182-3.639h0a3.347,3.347,0,0,1,2.444-4.231h0a3.344,3.344,0,0,0,2.559-2.844h0a3.349,3.349,0,0,1,3.952-2.872h0a3.346,3.346,0,0,0,3.5-1.556h0A3.347,3.347,0,0,1,158.036,835h0A3.344,3.344,0,0,0,161.862,835Z" transform="translate(-138.299 -834.398)"/></g><g transform="translate(16.492 11.929)"><circle class="b" cx="13.618" cy="13.618" r="13.618"/></g><g transform="translate(0 0)"><g transform="translate(4.465)"><path class="c" d="M160.3,878.564a4.083,4.083,0,0,1-2.968-1.285,2.633,2.633,0,0,0-2.94-.624,4.069,4.069,0,0,1-5.422-2.415,2.635,2.635,0,0,0-2.43-1.764,4.067,4.067,0,0,1-3.971-4.413,2.631,2.631,0,0,0-1.5-2.6,4.072,4.072,0,0,1-1.835-5.649,2.637,2.637,0,0,0-.313-2.986,4.067,4.067,0,0,1,.619-5.9,2.638,2.638,0,0,0,.928-2.857,4.071,4.071,0,0,1,2.968-5.139,2.638,2.638,0,0,0,2.01-2.233,4.065,4.065,0,0,1,4.8-3.487,2.671,2.671,0,0,0,2.742-1.224,4.094,4.094,0,0,1,2.638-1.875,4.026,4.026,0,0,1,3.168.642,2.637,2.637,0,0,0,3,0h0a4.066,4.066,0,0,1,5.806,1.233,2.663,2.663,0,0,0,2.744,1.224,3.99,3.99,0,0,1,3.155.7,4.085,4.085,0,0,1,1.648,2.786,2.633,2.633,0,0,0,2.008,2.233,4.064,4.064,0,0,1,2.968,5.139,2.639,2.639,0,0,0,.928,2.857,4.069,4.069,0,0,1,.621,5.9,2.638,2.638,0,0,0-.315,2.986,4.066,4.066,0,0,1-1.833,5.649,2.632,2.632,0,0,0-1.5,2.6,4.07,4.07,0,0,1-3.971,4.411,2.637,2.637,0,0,0-2.43,1.764,4.07,4.07,0,0,1-5.424,2.415,2.627,2.627,0,0,0-2.936.623A4.081,4.081,0,0,1,160.3,878.564Zm-4.893-3.556a4.089,4.089,0,0,1,2.976,1.283,2.685,2.685,0,0,0,3.835,0,4.073,4.073,0,0,1,4.546-.965,2.626,2.626,0,0,0,3.5-1.56,4.086,4.086,0,0,1,3.762-2.732,2.626,2.626,0,0,0,2.565-2.849,4.086,4.086,0,0,1,2.327-4.027,2.627,2.627,0,0,0,1.184-3.647,4.085,4.085,0,0,1,.484-4.624,2.622,2.622,0,0,0-.4-3.812,4.083,4.083,0,0,1-1.435-4.425,2.625,2.625,0,0,0-1.917-3.316,4.081,4.081,0,0,1-3.111-3.458,2.626,2.626,0,0,0-3.1-2.252,4.072,4.072,0,0,1-4.25-1.891,2.621,2.621,0,0,0-3.746-.8h0a4.09,4.09,0,0,1-4.649,0,2.632,2.632,0,0,0-2.048-.415,2.6,2.6,0,0,0-1.7,1.212,4.079,4.079,0,0,1-4.246,1.891,2.632,2.632,0,0,0-2.038.453,2.6,2.6,0,0,0-1.064,1.8,4.083,4.083,0,0,1-3.112,3.456,2.627,2.627,0,0,0-1.915,3.318,4.083,4.083,0,0,1-1.437,4.423,2.628,2.628,0,0,0-.4,3.812,4.079,4.079,0,0,1,.486,4.626,2.629,2.629,0,0,0,1.185,3.645A4.086,4.086,0,0,1,144,868.186a2.625,2.625,0,0,0,2.565,2.849,4.086,4.086,0,0,1,3.762,2.732,2.621,2.621,0,0,0,3.5,1.56A4.021,4.021,0,0,1,155.4,875.008Zm6.807-39.662h0Z" transform="translate(-137.924 -834.022)"/></g><g transform="translate(20.596 18.484)"><path class="c" d="M150.714,852.519a.715.715,0,0,1-.511-.211l-3.673-3.673a.721.721,0,0,1,1.02-1.02l3.164,3.164,6.922-6.924a.721.721,0,0,1,1.02,1.02l-7.433,7.433A.714.714,0,0,1,150.714,852.519Z" transform="translate(-146.32 -843.643)"/></g><g transform="translate(0 38.462)"><path class="c" d="M152.9,874.454h-.01a.718.718,0,0,1-.634-.4l-4.943-9.844L136.4,865.418a.752.752,0,0,1-.678-.315.722.722,0,0,1-.035-.745l5.387-9.941a.722.722,0,0,1,1.27.688l-4.734,8.73,10.044-1.11a.755.755,0,0,1,.722.394l4.546,9.053,4.888-9.088a.721.721,0,0,1,1.27.684l-5.545,10.308A.725.725,0,0,1,152.9,874.454Z" transform="translate(-135.6 -854.041)"/></g><g transform="translate(30.191 38.463)"><path class="c" d="M157.578,874.453a.725.725,0,0,1-.634-.378L151.4,863.767a.72.72,0,0,1,1.268-.684l4.888,9.088,4.546-9.053a.756.756,0,0,1,.722-.394l10.044,1.11-4.732-8.73a.722.722,0,0,1,.29-.978.729.729,0,0,1,.978.29l5.387,9.941a.722.722,0,0,1-.035.745.752.752,0,0,1-.678.315l-10.915-1.206-4.943,9.844a.717.717,0,0,1-.634.4Z" transform="translate(-151.314 -854.042)"/></g><g transform="translate(12.297 7.735)"><path class="c" d="M156.54,867.124a14.538,14.538,0,1,1,14.538-14.54A14.557,14.557,0,0,1,156.54,867.124Zm0-27.635a13.1,13.1,0,1,0,13.1,13.1A13.112,13.112,0,0,0,156.54,839.489Z" transform="translate(-142 -838.048)"/></g></g></svg>