<svg xmlns="http://www.w3.org/2000/svg" width="40.273" height="41.8" viewBox="0 0 40.273 41.8"><defs><style>.a{fill:#fff;}.b{fill:#7beaf3;}.c{fill:#052942;}</style></defs><g transform="translate(0.568 0.573)"><path class="a" d="M3569.956-32.281c-2.3-3.448-1.375-9.65-1.48-11.889a5.829,5.829,0,0,0-3.341-4.764c-.819-.323-1.525,1.422-4.266.071-.574-.282-2.31,1.422-4.336.036s-.178-5.829,2.026-8c1.1-1.083,6.767,1.881,9.205,3.2,1.776.96,4.182,3.873,7.062,7.719s8.22,14.352,7.777,16.965c-.451,2.651-10.147,12.542-21.165,12.542h-8.524a9.424,9.424,0,0,1-9.424-9.423,9.425,9.425,0,0,1,9.424-9.425,9.39,9.39,0,0,1,6.6,2.7,8.517,8.517,0,0,1,4.859-1.843A9.037,9.037,0,0,1,3569.956-32.281Z" transform="translate(-3543.49 57.056)"/></g><g transform="translate(15.711 25.637)"><path class="b" d="M3560.14-40.468c3.582-.365,7.606,1.727,7.972,5.309s-3.234,5.676-6.816,6.041-7.416-1.036-7.781-4.62S3556.557-40.1,3560.14-40.468Z" transform="translate(-3553.487 40.509)"/></g><g transform="translate(12.33 32.5)"><path class="b" d="M3551.622-33.859a1.4,1.4,0,0,1,.029-1.921c.565-.45,1.308-.071,1.759.494s.632,1.363.066,1.813A1.363,1.363,0,0,1,3551.622-33.859Z" transform="translate(-3551.255 35.978)"/></g><g transform="translate(0)"><path class="c" d="M3561.631-15.635h-8.523a10,10,0,0,1-9.993-9.993,10,10,0,0,1,9.993-9.993,9.934,9.934,0,0,1,7,2.863.568.568,0,0,1,.008.8.564.564,0,0,1-.8.008,8.813,8.813,0,0,0-6.206-2.537,8.867,8.867,0,0,0-8.856,8.857,8.867,8.867,0,0,0,8.856,8.857h8.523c10.659,0,20.175-9.549,20.6-12.072.4-2.354-4.773-12.659-7.669-16.527-2.388-3.192-5.075-6.586-6.877-7.559-7.581-4.094-8.5-3.329-8.539-3.295-1.643,1.618-2.861,4.272-2.715,5.914a1.517,1.517,0,0,0,.613,1.209,2.838,2.838,0,0,0,2.913.083,1.691,1.691,0,0,1,1.354-.159,2.725,2.725,0,0,0,2.878.115,1.58,1.58,0,0,1,1.343-.2,6.362,6.362,0,0,1,3.7,5.264c.024.5,0,1.206-.035,2.031-.109,2.8-.276,7.033,1.419,9.569a.566.566,0,0,1-.154.788.569.569,0,0,1-.789-.156c-1.9-2.842-1.726-7.3-1.611-10.244.029-.785.058-1.453.034-1.934a5.219,5.219,0,0,0-2.981-4.261,2.708,2.708,0,0,0-.427.17,3.839,3.839,0,0,1-3.881-.117,1.821,1.821,0,0,1-.445.2,3.936,3.936,0,0,1-3.959-.206,2.664,2.664,0,0,1-1.1-2.048c-.2-2.2,1.4-5.2,3.053-6.822.719-.71,2.458-.9,9.872,3.1,1.993,1.075,4.661,4.423,7.248,7.88,2.834,3.785,8.384,14.451,7.882,17.4C3582.837-25.6,3572.825-15.635,3561.631-15.635Z" transform="translate(-3543.115 57.434)"/></g><g transform="translate(13.756 22.672)"><path class="c" d="M3552.764-36.4a.565.565,0,0,1-.214-.042.568.568,0,0,1-.312-.741,8.456,8.456,0,0,1,7.861-5.283,8.485,8.485,0,0,1,7.034,3.74.567.567,0,0,1-.153.788.568.568,0,0,1-.787-.151,7.353,7.353,0,0,0-6.094-3.24,7.322,7.322,0,0,0-6.807,4.578A.571.571,0,0,1,3552.764-36.4Z" transform="translate(-3552.196 42.467)"/></g><g transform="translate(15.109 13.126)"><path class="c" d="M3554.441-45.361a.568.568,0,0,1-.536-.382l-.784-2.272a.569.569,0,0,1,.353-.723.571.571,0,0,1,.721.351l.784,2.271a.567.567,0,0,1-.353.723A.518.518,0,0,1,3554.441-45.361Z" transform="translate(-3553.09 48.768)"/></g><g transform="translate(10.622 17.102)"><path class="c" d="M3552.854-43.958a.554.554,0,0,1-.249-.058l-2.157-1.05a.566.566,0,0,1-.262-.759.568.568,0,0,1,.759-.262l2.157,1.048a.571.571,0,0,1,.262.76A.57.57,0,0,1,3552.854-43.958Z" transform="translate(-3550.128 46.144)"/></g><g transform="translate(20.088 13.49)"><path class="c" d="M3556.946-45.332a.575.575,0,0,1-.248-.058.567.567,0,0,1-.263-.76l1-2.06a.567.567,0,0,1,.759-.262.567.567,0,0,1,.262.759l-1,2.062A.567.567,0,0,1,3556.946-45.332Z" transform="translate(-3556.377 48.529)"/></g></svg>