<svg xmlns="http://www.w3.org/2000/svg" width="56.632" height="56.529" viewBox="0 0 56.632 56.529"><defs><style>.a{fill:#fff;}.b{fill:#7beaf3;}.c{fill:#052942;}</style></defs><g transform="translate(0.93 7.462)"><circle class="a" cx="18.984" cy="18.984" r="18.984"/></g><g transform="translate(27.189 0.719)"><path class="a" d="M533.682,849.371v-4.317h-2.809a10.971,10.971,0,0,0-1.652-3.989l1.987-1.987-3.051-3.053-1.987,1.987a11.015,11.015,0,0,0-3.989-1.65v-2.811h-4.317v2.811a10.983,10.983,0,0,0-3.988,1.65l-1.987-1.987-3.051,3.053,1.985,1.987a11,11,0,0,0-1.65,3.989h-2.809v4.317h2.809a11.015,11.015,0,0,0,1.65,3.989l-1.985,1.985,3.051,3.053,1.987-1.987a11.018,11.018,0,0,0,3.988,1.652v2.809h4.317v-2.809a11.018,11.018,0,0,0,3.989-1.652l1.987,1.987,3.051-3.053-1.987-1.986a10.961,10.961,0,0,0,1.652-3.987Zm-13.658,1.775a3.934,3.934,0,1,1,3.933-3.935A3.935,3.935,0,0,1,520.024,851.146Z" transform="translate(-506.364 -833.551)"/></g><g transform="translate(35.18 41.712)"><rect class="a" width="5.379" height="14.556" transform="translate(0 3.804) rotate(-45)"/></g><g transform="translate(29.314 2.843)"><path class="b" d="M534.788,850.069v-3.5a.4.4,0,0,0-.405-.405H532.3a.392.392,0,0,1-.382-.311,11,11,0,0,0-1.414-3.412.4.4,0,0,1,.052-.49l1.475-1.474a.408.408,0,0,0,0-.574l-2.478-2.479a.4.4,0,0,0-.574,0L527.5,838.9a.394.394,0,0,1-.492.05,11.022,11.022,0,0,0-3.41-1.412.392.392,0,0,1-.311-.382v-2.087a.407.407,0,0,0-.405-.407h-3.5a.408.408,0,0,0-.407.407v2.087a.39.39,0,0,1-.311.382,11.023,11.023,0,0,0-3.41,1.412.392.392,0,0,1-.492-.052l-1.474-1.474a.4.4,0,0,0-.575,0l-2.478,2.479a.408.408,0,0,0,0,.574l1.475,1.474a.4.4,0,0,1,.052.49,11.006,11.006,0,0,0-1.414,3.412.392.392,0,0,1-.382.311h-2.086a.4.4,0,0,0-.405.405v3.5a.406.406,0,0,0,.405.407h2.086a.39.39,0,0,1,.382.311,10.977,10.977,0,0,0,1.414,3.41.394.394,0,0,1-.052.49l-1.475,1.475a.408.408,0,0,0,0,.575l2.478,2.478a.408.408,0,0,0,.575,0l1.474-1.476a.392.392,0,0,1,.492-.052,10.972,10.972,0,0,0,3.41,1.412.394.394,0,0,1,.311.384v2.086a.407.407,0,0,0,.407.405h3.5a.407.407,0,0,0,.405-.405v-2.086a.4.4,0,0,1,.311-.384,10.97,10.97,0,0,0,3.41-1.412.392.392,0,0,1,.492.052l1.474,1.476a.408.408,0,0,0,.574,0l2.478-2.478a.408.408,0,0,0,0-.575l-1.475-1.475a.4.4,0,0,1-.052-.49,10.991,10.991,0,0,0,1.414-3.41.391.391,0,0,1,.382-.311h2.086A.406.406,0,0,0,534.788,850.069Zm-13.658,2.182a3.934,3.934,0,1,1,3.933-3.935A3.935,3.935,0,0,1,521.13,852.252Z" transform="translate(-507.47 -834.657)"/></g><g transform="translate(0)"><g transform="translate(0 6.506)"><path class="c" d="M512.166,876.438a19.935,19.935,0,1,1,5.143-39.192.721.721,0,0,1-.377,1.393,18.494,18.494,0,1,0,12.682,23.941.721.721,0,0,1,1.362.475,19.94,19.94,0,0,1-18.811,13.383Z" transform="translate(-492.212 -836.563)"/></g><g transform="translate(5.924 14.534)"><path class="c" d="M496.017,849.982a.739.739,0,0,1-.179-.023.719.719,0,0,1-.519-.876,14.434,14.434,0,0,1,5.633-8.206.72.72,0,1,1,.834,1.174,13.013,13.013,0,0,0-5.072,7.389A.72.72,0,0,1,496.017,849.982Z" transform="translate(-495.296 -840.742)"/></g><g transform="translate(6.246 30.191)"><path class="c" d="M509.165,859.585a14.462,14.462,0,0,1-13.662-9.739.72.72,0,1,1,1.362-.469,13,13,0,0,0,21.161,5.268.721.721,0,1,1,.988,1.051,14.477,14.477,0,0,1-9.848,3.889Z" transform="translate(-495.463 -848.891)"/></g><g transform="translate(26.468)"><path class="c" d="M522.527,861.936H518.21a.719.719,0,0,1-.72-.721v-2.234a11.6,11.6,0,0,1-3.166-1.308l-1.577,1.579a.72.72,0,0,1-1.02,0l-3.053-3.053a.723.723,0,0,1,0-1.02l1.579-1.577a11.732,11.732,0,0,1-1.31-3.168H506.71a.719.719,0,0,1-.721-.72V845.4a.719.719,0,0,1,.721-.72h2.232a11.7,11.7,0,0,1,1.31-3.166l-1.579-1.579a.724.724,0,0,1,0-1.02l3.053-3.051a.719.719,0,0,1,1.016,0l1.579,1.579a11.657,11.657,0,0,1,3.166-1.31V833.9a.721.721,0,0,1,.72-.72h4.317a.721.721,0,0,1,.72.72v2.232a11.655,11.655,0,0,1,3.166,1.31l1.577-1.579a.721.721,0,0,1,1.018,0l3.053,3.051a.721.721,0,0,1,0,1.018l-1.579,1.581a11.65,11.65,0,0,1,1.31,3.166h2.233a.721.721,0,0,1,.72.72v4.315a.721.721,0,0,1-.72.72H531.8a11.687,11.687,0,0,1-1.31,3.168l1.579,1.579a.725.725,0,0,1,0,1.018l-3.053,3.053a.723.723,0,0,1-.511.209h0a.724.724,0,0,1-.509-.211l-1.577-1.577a11.627,11.627,0,0,1-3.166,1.308v2.234A.719.719,0,0,1,522.527,861.936Zm-3.6-1.441h2.876v-2.088a.726.726,0,0,1,.582-.709,10.218,10.218,0,0,0,3.725-1.541.713.713,0,0,1,.913.09l1.474,1.475,2.035-2.033-1.478-1.479a.721.721,0,0,1-.088-.909,10.246,10.246,0,0,0,1.543-3.727.724.724,0,0,1,.707-.582h2.088v-2.874h-2.088a.724.724,0,0,1-.707-.582,10.261,10.261,0,0,0-1.543-3.727.721.721,0,0,1,.088-.909l1.478-1.477L528.5,837.39l-1.474,1.477a.722.722,0,0,1-.911.088,10.265,10.265,0,0,0-3.727-1.543.724.724,0,0,1-.582-.707v-2.088h-2.876v2.088a.724.724,0,0,1-.58.707,10.22,10.22,0,0,0-3.725,1.543.725.725,0,0,1-.911-.088l-1.479-1.477-2.033,2.033,1.477,1.475a.724.724,0,0,1,.088.913,10.245,10.245,0,0,0-1.543,3.727.724.724,0,0,1-.709.58H507.43v2.874h2.087a.724.724,0,0,1,.709.58,10.218,10.218,0,0,0,1.543,3.727.724.724,0,0,1-.088.913L510.2,855.69l2.033,2.033,1.477-1.477a.722.722,0,0,1,.912-.089,10.176,10.176,0,0,0,3.725,1.541.726.726,0,0,1,.58.709Zm1.439-8.284a4.655,4.655,0,1,1,4.653-4.655A4.661,4.661,0,0,1,520.37,852.211Zm0-7.87a3.214,3.214,0,1,0,3.212,3.214A3.217,3.217,0,0,0,520.37,844.341Z" transform="translate(-505.989 -833.177)"/></g><g transform="translate(34.461 40.998)"><path class="c" d="M521.162,870.047a.718.718,0,0,1-.509-.211l-10.294-10.29a.723.723,0,0,1,0-1.018l3.8-3.806a.738.738,0,0,1,1.02,0l10.292,10.292a.726.726,0,0,1,0,1.022l-3.8,3.8A.726.726,0,0,1,521.162,870.047Zm-9.274-11.013,9.274,9.272,2.784-2.784-9.274-9.274Z" transform="translate(-510.149 -854.516)"/></g><g transform="translate(32.869 39.245)"><path class="c" d="M513.612,858.617a.725.725,0,0,1-.511-.209l-3.57-3.572a.721.721,0,1,1,1.02-1.02l3.572,3.57a.72.72,0,0,1-.511,1.232Z" transform="translate(-509.321 -853.604)"/></g></g></svg>