<svg xmlns="http://www.w3.org/2000/svg" width="40.062" height="42.826" viewBox="0 0 40.062 42.826"><defs><style>.a{fill:#fff;}.b{fill:#7beaf3;}.c{fill:#052942;}</style></defs><g transform="translate(0)"><g transform="translate(0.111 0.568)"><path class="a" d="M3445.606-15.956c0-11.371,7.181-12.278,7.181-25.319,0-10.132-9.769-16.114-17.838-16.114-14.536,0-17.432,9.273-17.432,15.341a13.586,13.586,0,0,1-3.532,8.7c-1.509,1.769.168,2.757,2.2,3.348,1.968.573-1.768,1.946.143,3.034.934.53-1.07,2.519,1.014,2.919,1.85.356-1.592,4.359,4.557,4.359,2.873,0,6.6.916,6.6,3.988Z" transform="translate(-3413.405 57.389)"/></g><g transform="translate(11.653 6.528)"><path class="b" d="M3445.036-39.7v-3.5a.148.148,0,0,0-.149-.147h-2.207a.141.141,0,0,1-.138-.114,9.677,9.677,0,0,0-1.364-3.3.14.14,0,0,1,.018-.177l1.56-1.56a.149.149,0,0,0,0-.209l-2.475-2.474a.146.146,0,0,0-.208,0l-1.56,1.56a.143.143,0,0,1-.177.018,9.679,9.679,0,0,0-3.3-1.366.139.139,0,0,1-.114-.138v-2.205a.149.149,0,0,0-.149-.148h-3.5a.148.148,0,0,0-.148.148V-51.1a.14.14,0,0,1-.114.138,9.691,9.691,0,0,0-3.3,1.366.142.142,0,0,1-.177-.018l-1.56-1.56a.146.146,0,0,0-.207,0L3423.3-48.7a.146.146,0,0,0,0,.209l1.56,1.56a.14.14,0,0,1,.018.177,9.673,9.673,0,0,0-1.365,3.3.141.141,0,0,1-.14.114h-2.205a.146.146,0,0,0-.147.147v3.5a.146.146,0,0,0,.147.147h2.205a.143.143,0,0,1,.14.114,9.649,9.649,0,0,0,1.365,3.3.142.142,0,0,1-.018.179L3423.3-34.4a.146.146,0,0,0,0,.209l2.475,2.474a.146.146,0,0,0,.207,0l1.642-1.64a9.678,9.678,0,0,0,1.365.762,9.74,9.74,0,0,0,2.026.666.141.141,0,0,1,.114.139v2.205a.147.147,0,0,0,.148.147h3.5a.148.148,0,0,0,.149-.147V-31.8a.139.139,0,0,1,.114-.138,9.706,9.706,0,0,0,3.3-1.365.139.139,0,0,1,.177.018l1.56,1.559a.146.146,0,0,0,.208,0l2.475-2.474a.149.149,0,0,0,0-.209l-1.56-1.56a.139.139,0,0,1-.018-.177,9.652,9.652,0,0,0,1.364-3.3.143.143,0,0,1,.138-.114h2.207A.148.148,0,0,0,3445.036-39.7Z" transform="translate(-3421.025 53.454)"/></g><g transform="translate(0)"><g transform="translate(9.432 4.308)"><path class="c" d="M3434.027-29.772h-3.793a.568.568,0,0,1-.568-.568v-2.013a10.382,10.382,0,0,1-1.642-.554h0a10.411,10.411,0,0,1-1.215-.629l-1.424,1.422a.566.566,0,0,1-.8,0L3421.9-34.8a.556.556,0,0,1-.168-.4.561.561,0,0,1,.167-.4l1.424-1.422a10.221,10.221,0,0,1-1.184-2.86h-2.012a.568.568,0,0,1-.568-.568v-3.793a.568.568,0,0,1,.568-.568h2.012a10.211,10.211,0,0,1,1.184-2.858l-1.424-1.424a.561.561,0,0,1-.167-.4.556.556,0,0,1,.168-.4l2.683-2.683a.566.566,0,0,1,.8,0l1.424,1.422a10.2,10.2,0,0,1,2.857-1.183v-2.013a.568.568,0,0,1,.568-.568h3.793a.569.569,0,0,1,.568.568v2.013a10.21,10.21,0,0,1,2.858,1.183l1.424-1.422a.566.566,0,0,1,.8,0l2.683,2.683a.557.557,0,0,1,.168.4.563.563,0,0,1-.167.4l-1.424,1.424a10.153,10.153,0,0,1,1.183,2.858h2.013a.568.568,0,0,1,.568.568v3.793a.568.568,0,0,1-.568.568h-2.013a10.181,10.181,0,0,1-1.183,2.86l1.424,1.422a.563.563,0,0,1,.167.4.557.557,0,0,1-.168.4l-2.683,2.683a.566.566,0,0,1-.8,0l-1.424-1.422a10.21,10.21,0,0,1-2.858,1.183v2.013A.569.569,0,0,1,3434.027-29.772Zm-3.226-1.136h2.657v-1.9a.566.566,0,0,1,.457-.556,9.081,9.081,0,0,0,3.3-1.368.567.567,0,0,1,.718.071l1.344,1.344,1.88-1.88-1.344-1.344a.567.567,0,0,1-.069-.718,9.034,9.034,0,0,0,1.364-3.3.571.571,0,0,1,.557-.459h1.9v-2.657h-1.9a.571.571,0,0,1-.557-.457,9.03,9.03,0,0,0-1.364-3.3.567.567,0,0,1,.069-.718l1.344-1.344-1.88-1.88-1.344,1.345a.568.568,0,0,1-.718.07,9.077,9.077,0,0,0-3.3-1.366.569.569,0,0,1-.457-.557v-1.9H3430.8v1.9a.569.569,0,0,1-.456.557,9.07,9.07,0,0,0-3.3,1.366.571.571,0,0,1-.719-.07l-1.342-1.345-1.882,1.88,1.345,1.344a.569.569,0,0,1,.07.718,9.065,9.065,0,0,0-1.365,3.3.57.57,0,0,1-.557.457h-1.9v2.657h1.9a.57.57,0,0,1,.557.459,9.069,9.069,0,0,0,1.365,3.3.569.569,0,0,1-.07.718L3423.1-35.2l1.882,1.88,1.342-1.344a.576.576,0,0,1,.719-.071,9.041,9.041,0,0,0,1.431.783h0a9.266,9.266,0,0,0,1.869.585.566.566,0,0,1,.456.556Z" transform="translate(-3419.558 54.92)"/></g><path class="c" d="M3428.82-14.938a.568.568,0,0,1-.568-.568c0-3.255-4.961-3.42-5.954-3.42-1.806,0-3.024-.344-3.722-1.053a3.208,3.208,0,0,1-.722-2.471c.013-.81-.047-.823-.166-.847a1.771,1.771,0,0,1-1.22-.715,2.147,2.147,0,0,1-.078-1.713,2.063,2.063,0,0,0,.093-.6,1.407,1.407,0,0,1-.791-.971,2.053,2.053,0,0,1,.657-1.606c.077-.1.182-.226.251-.329-.028-.011-.066-.023-.109-.036-1.8-.53-2.811-1.228-3.084-2.133a2.255,2.255,0,0,1,.635-2.127,13.012,13.012,0,0,0,3.359-8.334c0-14.761,13.621-15.909,17.8-15.909,8.788,0,18.2,6.7,18.2,16.682a24.087,24.087,0,0,1-3.8,13.625c-1.695,3-3.294,5.827-3.294,11.17a.568.568,0,0,1-.568.568.569.569,0,0,1-.569-.568c0-5.641,1.749-8.735,3.44-11.729a23.1,23.1,0,0,0,3.658-13.066c0-10.143-9.909-15.546-17.062-15.546-15.038,0-16.66,10.332-16.66,14.773a14.148,14.148,0,0,1-3.625,9.066c-.36.429-.5.788-.417,1.068s.5.835,2.316,1.369a1.328,1.328,0,0,1,.954.765c.167.538-.2,1-.533,1.4-.146.18-.45.556-.424.683,0,.024.062.115.271.235.745.43.547,1.257.415,1.806-.072.306-.163.686-.069.833a.794.794,0,0,0,.48.215c1.115.217,1.1,1.278,1.086,1.98a2.176,2.176,0,0,0,.4,1.654,4.233,4.233,0,0,0,2.913.715c3.427,0,7.09,1.2,7.09,4.556A.568.568,0,0,1,3428.82-14.938Z" transform="translate(-3413.332 57.764)"/></g><g transform="translate(17.861 13.819)"><path class="c" d="M3427.853-42.515h0a.564.564,0,0,1-.4-.167l-2.162-2.162a.568.568,0,0,1,0-.8.567.567,0,0,1,.8,0l1.758,1.76,4.587-4.588a.568.568,0,0,1,.8,0,.569.569,0,0,1,0,.8l-4.99,4.99A.564.564,0,0,1,3427.853-42.515Z" transform="translate(-3425.123 48.641)"/></g></g></svg>